<?xml version="1.0" standalone="no"?>
<!DOCTYPE svg PUBLIC "-//W3C//DTD SVG 20010904//EN"
 "http://www.w3.org/TR/2001/REC-SVG-20010904/DTD/svg10.dtd">
<svg version="1.0" xmlns="http://www.w3.org/2000/svg"
 width="1024.000000pt" height="1024.000000pt" viewBox="0 0 1024.000000 1024.000000"
 preserveAspectRatio="xMidYMid meet">
<metadata>
Created by potrace 1.11, written by Peter Selinger 2001-2013
</metadata>
<g transform="translate(0.000000,1024.000000) scale(0.100000,-0.100000)"
fill="#000000" stroke="none">
<path d="M4829 10236 c-2 -2 -50 -7 -106 -10 -55 -4 -112 -9 -125 -11 -12 -2
-50 -6 -83 -9 -33 -3 -69 -8 -80 -10 -11 -2 -42 -7 -70 -10 -44 -6 -85 -13
-190 -32 -86 -15 -231 -47 -315 -70 -52 -13 -102 -26 -110 -28 -100 -25 -392
-121 -485 -161 -16 -7 -66 -27 -110 -45 -182 -74 -432 -197 -597 -295 -9 -5
-36 -21 -59 -33 -106 -58 -426 -279 -545 -375 -192 -155 -300 -252 -454 -407
-516 -516 -901 -1108 -1162 -1784 -17 -45 -31 -82 -30 -83 0 -1 -10 -31 -24
-65 -20 -51 -69 -205 -89 -278 -22 -78 -65 -249 -69 -269 -3 -14 -12 -57 -20
-96 -21 -97 -33 -165 -41 -224 -2 -14 -4 -26 -5 -26 -1 0 -3 -13 -5 -30 -2
-16 -7 -48 -10 -70 -3 -22 -8 -60 -10 -85 -3 -25 -7 -61 -10 -80 -14 -119 -20
-280 -20 -530 0 -368 10 -511 61 -830 5 -30 35 -190 50 -269 7 -36 83 -331 94
-366 174 -547 367 -956 651 -1381 56 -84 236 -329 260 -354 8 -8 35 -41 62
-74 112 -138 346 -385 492 -517 231 -210 615 -494 825 -611 25 -14 70 -40 100
-58 64 -38 309 -162 422 -214 225 -102 671 -258 837 -291 9 -2 54 -12 101 -24
47 -11 99 -23 115 -26 17 -3 53 -10 80 -15 28 -5 59 -11 70 -13 20 -5 131 -22
195 -31 19 -3 62 -8 95 -12 33 -3 71 -7 84 -9 124 -20 740 -28 911 -12 47 4
108 10 135 12 83 7 173 20 305 42 52 8 104 17 115 19 88 14 256 52 392 89
1106 302 2069 955 2757 1869 444 590 765 1290 912 1988 19 91 26 127 30 153 3
17 9 55 14 85 5 30 12 73 15 95 4 22 8 51 10 65 2 14 7 52 10 85 4 33 9 74 11
90 26 215 26 873 -1 1036 -2 13 -6 49 -9 79 -8 78 -15 129 -38 260 -11 63 -22
129 -24 145 -3 17 -7 37 -10 45 -3 8 -8 29 -11 45 -25 161 -182 668 -263 850
-101 228 -137 307 -172 373 -104 198 -107 202 -231 407 -99 163 -283 412 -455
615 -85 101 -355 379 -453 466 -292 261 -656 518 -974 689 -49 27 -109 59
-132 71 -184 101 -714 311 -876 349 -12 3 -56 14 -97 26 -41 11 -82 22 -90 24
-8 1 -42 10 -75 18 -33 9 -71 18 -85 21 -14 3 -50 10 -80 15 -30 6 -66 13 -80
16 -65 13 -200 34 -250 40 -30 3 -66 8 -80 10 -14 2 -54 7 -90 10 -36 4 -83 9
-105 11 -47 6 -701 15 -706 10z"/>
</g>
</svg>
