<?xml version="1.0" standalone="no"?>
<!DOCTYPE svg PUBLIC "-//W3C//DTD SVG 20010904//EN"
 "http://www.w3.org/TR/2001/REC-SVG-20010904/DTD/svg10.dtd">
<svg version="1.0" xmlns="http://www.w3.org/2000/svg"
 width="300.000000pt" height="300.000000pt" viewBox="0 0 300.000000 300.000000"
 preserveAspectRatio="xMidYMid meet">
<metadata>
Created by potrace 1.11, written by Peter Selinger 2001-2013
</metadata>
<g transform="translate(0.000000,300.000000) scale(0.100000,-0.100000)"
fill="#000000" stroke="none">
<path d="M0 1500 l0 -1500 1500 0 1500 0 0 1500 0 1500 -1500 0 -1500 0 0
-1500z m1624 849 c14 -11 31 -17 37 -14 5 4 26 7 45 7 40 0 84 -34 84 -64 0
-10 7 -18 16 -18 8 0 29 -13 45 -29 22 -22 37 -29 65 -28 28 1 42 -5 60 -27
13 -15 24 -34 24 -42 0 -10 12 -14 39 -14 31 0 44 -6 60 -26 25 -31 27 -64 6
-64 -8 0 -15 -5 -15 -11 0 -12 -187 -1206 -196 -1251 -5 -23 -42 -48 -73 -48
-4 0 25 299 63 665 39 365 67 667 64 670 -6 6 -120 26 -125 22 -1 -2 -21 -289
-43 -638 -22 -349 -42 -662 -46 -696 l-5 -62 -50 -16 c-28 -10 -51 -15 -53
-14 -2 4 17 833 28 1235 l7 222 -68 8 c-39 5 -97 5 -135 0 l-68 -9 0 -136 c0
-75 7 -401 15 -725 9 -324 13 -591 11 -594 -9 -8 -106 30 -106 41 -1 51 -89
1379 -92 1382 -4 4 -121 -14 -126 -20 -2 -2 28 -302 66 -667 39 -365 68 -665
66 -667 -7 -7 -84 19 -84 29 0 24 -192 1231 -201 1264 -13 48 0 79 42 96 18 8
30 22 34 40 11 50 72 83 113 61 27 -14 82 7 82 32 0 10 12 30 26 44 22 22 32
25 67 20 31 -4 46 -1 65 14 30 23 53 24 92 4 27 -14 30 -14 40 6 22 41 83 50
124 18z"/>
</g>
</svg>
